<?xml version="1.0" encoding="UTF-8"?>
<svg width="90px" height="90px" viewBox="0 0 90 90" version="1.1" xmlns="http://www.w3.org/2000/svg" xmlns:xlink="http://www.w3.org/1999/xlink">
    <!-- Generator: Sketch 50.2 (55047) - http://www.bohemiancoding.com/sketch -->
    <title>Logo Official</title>
    <desc>Created with Sketch.</desc>
    <defs>
        <path d="M44.6790123,1.29120879 L59,1.29120879 L59,47 L43.3771044,47 L43.3771044,17.5604396 L39.1890258,20.4226259 C38.7128318,21.6599199 38.1017545,22.7717831 37.35578,23.7582418 C36.5095356,24.877295 35.5548126,25.8887317 34.4915825,26.7925824 C33.4283523,27.6964331 32.3108925,28.5572303 31.1391695,29.375 L24.369248,34.1524725 L43.3771044,34.1524725 L43.3771044,47 L2.88776655,47 L2.88776655,35.0563187 L21.1144781,20.5947802 C21.8522297,20.0352536 22.4597806,19.4111756 22.9371493,18.7225275 C23.4145179,18.0338793 23.6531987,17.3237216 23.6531987,16.592033 C23.6531987,15.7312228 23.3819705,14.9780252 22.8395062,14.3324176 C22.2970418,13.68681 21.439961,13.364011 20.2682379,13.364011 C19.0097206,13.364011 17.9682046,13.8589694 17.1436588,14.8489011 C16.319113,15.8388328 15.8634497,17.1730685 15.7766554,18.8516484 L1,17.1730769 C1.30378004,14.2032819 2.08491701,11.64241 3.34343434,9.49038462 C4.60195167,7.3383592 6.17507474,5.5522049 8.06285073,4.13186813 C9.95062672,2.71153136 12.0553569,1.66781469 14.3771044,1.00068681 C16.6988519,0.333558935 19.0965084,0 21.5701459,0 C23.8267977,0 26.0725665,0.279759107 28.3075196,0.839285714 C30.5424728,1.39881232 32.5278626,2.27036954 34.2637486,3.45398352 C35.3416259,4.1889342 36.2940022,5.06078359 37.1208877,6.06954274 L44.6790123,1.29120879 Z" id="path-1"></path>
        <filter x="-5.2%" y="-6.4%" width="110.3%" height="112.8%" filterUnits="objectBoundingBox" id="filter-2">
            <feMorphology radius="1" operator="dilate" in="SourceAlpha" result="shadowSpreadOuter1"></feMorphology>
            <feOffset dx="0" dy="0" in="shadowSpreadOuter1" result="shadowOffsetOuter1"></feOffset>
            <feColorMatrix values="0 0 0 0 0.11372549   0 0 0 0 0.11372549   0 0 0 0 0.11372549  0 0 0 1 0" type="matrix" in="shadowOffsetOuter1"></feColorMatrix>
        </filter>
        <linearGradient x1="50%" y1="0%" x2="50%" y2="100%" id="linearGradient-3">
            <stop stop-color="#00BAFF" offset="0%"></stop>
            <stop stop-color="#0084FF" offset="100%"></stop>
        </linearGradient>
    </defs>
    <g id="Logo-Official" stroke="none" stroke-width="1" fill="none" fill-rule="evenodd">
        <g transform="translate(16.000000, 14.000000)">
            <g id="Combined-Shape">
                <use fill="black" fill-opacity="1" filter="url(#filter-2)" xlink:href="#path-1"></use>
                <use fill="#FFFFFF" fill-rule="evenodd" xlink:href="#path-1"></use>
            </g>
            <path d="M9.64646808,56.5877863 C9.64646808,57.5284877 9.5470611,58.4237861 9.34720722,59.2724732 C9.13197944,60.1864463 8.74276222,61.0001451 8.1815308,61.7029103 C7.60853856,62.4204022 6.84477943,62.9843114 5.90488169,63.3947891 C4.97012441,63.8030219 3.83273497,64 2.49267548,64 C2.10820209,64 1.65894965,63.9724841 1.14191493,63.9181971 C0.600796401,63.8613814 0.127096831,63.7743417 -0.282054587,63.6540548 L-1.04990532,63.4283136 L-0.607121054,56.6303048 L0.569786392,56.9448505 C0.711205161,56.9826467 0.837075892,57.006715 0.946484798,57.018001 C1.07899501,57.0316701 1.18840116,57.0381679 1.27230311,57.0381679 C1.46647934,57.0381679 1.54492004,57.00995 1.57295892,56.9804374 C1.59747837,56.9546292 1.6484677,56.771413 1.6484677,56.4096692 L1.6484677,42.5089059 L9.64646808,42.5089059 L9.64646808,56.5877863 Z" id="Path" stroke="#1D1D1D" stroke-width="2" fill="url(#linearGradient-3)"></path>
            <path d="M25.2686322,50.1501272 C25.2686322,51.4459473 25.0265367,52.6176537 24.5369072,53.6556369 C24.0537554,54.6798876 23.3974294,55.5520788 22.5716331,56.263834 C21.7551973,56.9675213 20.812199,57.5017727 19.7493851,57.8648735 C18.7007846,58.2231185 17.6005357,58.4020356 16.4530559,58.4020356 C15.3224306,58.4020356 14.2308322,58.2229612 13.1826921,57.8648735 C12.1181995,57.5011992 11.1778908,56.9656825 10.368894,56.2599034 C9.5536591,55.5486822 8.90333592,54.6778712 8.42113534,53.6556369 C7.93150583,52.6176537 7.6894104,51.4459473 7.6894104,50.1501272 C7.6894104,48.8698525 7.93214411,47.7096204 8.42270648,46.6794706 C8.90583597,45.6649293 9.55742582,44.8021709 10.3740532,44.0994942 C11.1840475,43.4025251 12.1252225,42.8761729 13.1903419,42.5218604 C14.2362528,42.1739376 15.3251948,42 16.4530559,42 C17.5977846,42 18.6953735,42.1737876 19.7417353,42.5218604 C20.8051791,42.8756155 21.7490381,43.4007195 22.5664565,44.0956027 C23.3936443,44.7987907 24.051247,45.6629142 24.5353361,46.6794706 C25.0258984,47.7096204 25.2686322,48.8698525 25.2686322,50.1501272 Z" id="Path" stroke="#1D1D1D" stroke-width="2" fill="url(#linearGradient-3)"></path>
            <circle id="Oval" stroke="#1D1D1D" stroke-width="2" fill="#FFFFFF" cx="15.5" cy="52.5" r="1.5"></circle>
            <path d="M24.3115745,42.5089059 L32.3095749,42.5089059 L32.3095749,57.8931298 L24.3115745,57.8931298 L24.3115745,42.5089059 Z" id="Path" stroke="#1D1D1D" stroke-width="2" fill="url(#linearGradient-3)"></path>
            <path d="M39.7399981,42.8863076 C39.7815857,42.8630867 39.8236647,42.8401237 39.8662332,42.8174176 C40.7000651,42.3726503 41.6449472,42.1526718 42.6867343,42.1526718 C43.7937324,42.1526718 44.74633,42.3567193 45.5356464,42.7805586 C46.3027282,43.1924585 46.9247201,43.7336823 47.3891398,44.4004824 C47.8365358,45.0428405 48.1485368,45.7613569 48.3236677,46.5488043 C48.4865628,47.281235 48.5682238,48.0155852 48.5682238,48.7506361 L48.5682238,57.8931298 L40.544258,57.8931298 L40.544258,49.7684478 C40.544258,49.2955048 40.4820619,49.0224472 40.4377621,48.9668792 C40.424472,48.9502086 40.391415,48.9363868 40.2459895,48.9363868 C40.1525035,48.9363868 40.1149727,48.9545311 40.0532318,49.0317262 C39.9613319,49.1466293 39.8957903,49.3836114 39.8957903,49.7684478 L39.8957903,57.8931298 L31.8977899,57.8931298 L31.8977899,42.5089059 L39.7399981,42.5089059 L39.7399981,42.8863076 Z" id="Path" stroke="#1D1D1D" stroke-width="2" fill="url(#linearGradient-3)"></path>
            <path d="M49.2496704,48.7073791 L47.3282331,48.7073791 L47.3282331,42.5089059 L60,42.5089059 L60,48.7073791 L57.0399479,48.7073791 L57.0399479,51.2697201 C57.0399479,51.6410538 57.0911841,51.7977698 57.0939246,51.7999671 C57.184902,51.8729123 57.3594508,51.9236641 57.6498008,51.9236641 C57.7847962,51.9236641 57.930108,51.9112814 58.0858117,51.8858506 C58.2600372,51.8573946 58.3906273,51.8304526 58.4707239,51.8080262 L59.7403463,51.4525427 L59.7403463,57.4465386 L59.1396582,57.7081638 C58.7359013,57.884017 58.2196568,58.0142498 57.578175,58.1109626 C56.9650683,58.2033974 56.3224564,58.2493639 55.6504673,58.2493639 C53.594564,58.2493639 52.0068932,57.7984588 50.9157036,56.8444456 C49.7925478,55.8624847 49.2496704,54.3864352 49.2496704,52.4910941 L49.2496704,48.7073791 Z" id="Path" stroke="#1D1D1D" stroke-width="2" fill="url(#linearGradient-3)"></path>
        </g>
    </g>
</svg>
